<svg xmlns="http://www.w3.org/2000/svg" width="21" height="22"><path d="M19.25 2.02h-2.84V.65c0-.38-.3-.7-.66-.7-.36 0-.66.32-.66.7v1.38h-3.93V.65c0-.38-.3-.7-.66-.7-.36 0-.66.32-.66.7v1.38H5.91V.65c0-.38-.3-.7-.66-.7-.36 0-.66.32-.66.7v1.38H1.75A1.8 1.8 0 0 0 0 3.86v16.3A1.8 1.8 0 0 0 1.75 22h17.5A1.8 1.8 0 0 0 21 20.16V3.86a1.8 1.8 0 0 0-1.75-1.83zm.44 18.14c0 .26-.2.46-.44.46H1.75a.45.45 0 0 1-.44-.46V3.86c0-.25.2-.46.44-.46h2.84v1.38c0 .38.3.69.66.69.36 0 .66-.3.66-.69V3.4h3.93v1.38c0 .38.3.69.66.69.36 0 .66-.3.66-.69V3.4h3.93v1.38c0 .38.3.69.66.69.36 0 .66-.3.66-.69V3.4h2.84c.24 0 .44.2.44.46v16.3z"/><path d="M4.59 8.22h2.63v2.07H4.59zM4.59 11.67h2.63v2.07H4.59zM4.59 15.11h2.63v2.07H4.59zM9.19 15.11h2.63v2.07H9.19zM9.19 11.67h2.63v2.07H9.19zM9.19 8.22h2.63v2.07H9.19zM13.78 15.11h2.63v2.07h-2.63zM13.78 11.67h2.63v2.07h-2.63zM13.78 8.22h2.63v2.07h-2.63z"/></svg>